<svg width="17" height="17" viewBox="0 0 17 17" fill="none" xmlns="http://www.w3.org/2000/svg">
<path d="M15.29 6.57176C15.2479 6.44982 15.1713 6.34272 15.0696 6.26343C14.9678 6.18415 14.8452 6.13609 14.7167 6.1251L10.9234 5.57176L9.22336 2.1251C9.16877 2.01238 9.08353 1.91732 8.97742 1.85081C8.8713 1.7843 8.7486 1.74902 8.62336 1.74902C8.49812 1.74902 8.37541 1.7843 8.2693 1.85081C8.16318 1.91732 8.07795 2.01238 8.02336 2.1251L6.32336 5.5651L2.53002 6.1251C2.40664 6.14263 2.29064 6.19441 2.19519 6.27454C2.09974 6.35467 2.02866 6.45995 1.99002 6.57843C1.95465 6.69421 1.95148 6.81744 1.98084 6.93489C2.01021 7.05234 2.071 7.15958 2.15669 7.2451L4.91002 9.91176L4.24336 13.6984C4.21644 13.824 4.22639 13.9548 4.27201 14.0749C4.31763 14.1949 4.39698 14.2993 4.50051 14.3754C4.60404 14.4514 4.72734 14.496 4.85558 14.5036C4.98381 14.5112 5.11153 14.4817 5.22336 14.4184L8.62336 12.6384L12.0234 14.4184C12.1169 14.4712 12.2226 14.4988 12.33 14.4984C12.4712 14.4989 12.609 14.4546 12.7234 14.3718C12.8268 14.2977 12.9069 14.1955 12.9541 14.0774C13.0014 13.9593 13.0138 13.8301 12.99 13.7051L12.3234 9.91843L15.0767 7.25176C15.1729 7.17022 15.2441 7.06303 15.2818 6.94266C15.3196 6.82229 15.3224 6.69368 15.29 6.57176Z" fill="#C4C4C4"/>
</svg>
